<svg width="370" height="370" xmlns="http://www.w3.org/2000/svg" xmlns:svg="http://www.w3.org/2000/svg">
 <metadata id="metadata8">image/svg+xml</metadata>
 <g>
  <title>Layer 1</title>
  <path fill="#e2e1e1" fill-rule="nonzero" d="m1019.35999,521.55127c-1.1637,0 -2.32245,-0.04498 -3.47375,-0.13495c1.14996,0.08875 2.31006,0.13495 3.47375,0.13495c25.93872,0 48.67871,-22.40247 61.37122,-56.01126c0.00134,-0.00244 -0.00122,0.00131 0.00134,-0.00122c-12.69385,33.61502 -35.4314,56.01248 -61.37256,56.01248m-3.47876,-0.13495c-0.02374,-0.0025 -0.04626,-0.00385 -0.06879,-0.00629c0.0238,0.00244 0.04504,0.00378 0.06879,0.00629m-0.13,-0.01007c-0.005,-0.00122 -0.01001,-0.00122 -0.01379,-0.00122c0.00378,0 0.00879,0 0.01379,0.00122" id="path260"/>
  <path fill="#d8d7d8" fill-rule="nonzero" d="m1080.73132,465.54001c2.78247,-7.36624 5.07996,-15.26749 6.82495,-23.59253c-1.74377,8.32254 -4.04382,16.22879 -6.82373,23.59131c-0.00244,0.00244 0,-0.00131 -0.00122,0.00122m10.69861,-61.79001c0,-0.05621 0,-0.11252 0,-0.16748c0,0.05496 0,0.11127 0,0.16626l0,0m0,-0.215c0,-0.04752 -0.00122,-0.09378 -0.00122,-0.1413c0,0.04623 0.00122,0.09378 0.00122,0.1413m-0.00122,-0.1738c0,-0.05499 0,-0.11246 0,-0.16748c0,0.05502 0,0.11249 0,0.16748m0,-0.20621c0,-0.04755 0,-0.09378 0,-0.14252c0,0.04752 0,0.09628 0,0.14252m-0.00122,-0.17624c0,-0.05634 0,-0.11749 0,-0.17252c0,0.05731 0,0.11374 0,0.17252m0,-0.19501c0,-0.05624 -0.00122,-0.10257 -0.00122,-0.15756c0,0.05127 0.00122,0.10507 0.00122,0.15756m-0.00122,-0.18756c0,-0.05997 -0.00134,-0.11746 -0.00134,-0.17624c0,0.05756 0.00134,0.11749 0.00134,0.17624m-0.00134,-0.18118c0,-0.06003 -0.00122,-0.11002 -0.00122,-0.16876c0,0.05502 0.00122,0.11374 0.00122,0.16876m-0.00122,-0.20255c-0.00122,-0.06 -0.00122,-0.11377 -0.00122,-0.17261c0,0.05762 0,0.11496 0.00122,0.17261m-0.00122,-0.1738c-0.00134,-0.06015 -0.00134,-0.11743 -0.00256,-0.17749c0.00122,0.06128 0.00122,0.11618 0.00256,0.17749m-0.00256,-0.20636c-0.00122,-0.11859 -0.00244,-0.23508 -0.00366,-0.35379c0.00122,0.11749 0.00244,0.2352 0.00366,0.35379m-0.00366,-0.38135c-0.00134,-0.05118 -0.00134,-0.10245 -0.00256,-0.15372c0.00122,0.05005 0.00122,0.10376 0.00256,0.15372m-0.00256,-0.1825c0,-0.05997 -0.00122,-0.11618 -0.00244,-0.17493c0.00122,0.05743 0.00244,0.11749 0.00244,0.17493m-0.00244,-0.19116c0,-0.05127 -0.00122,-0.10254 -0.00256,-0.15381c0.00134,0.05255 0.00256,0.10254 0.00256,0.15381m-0.00256,-0.19632c-0.00122,-0.05499 -0.00122,-0.11374 -0.00244,-0.16876c0.00122,0.05502 0.00122,0.11505 0.00244,0.16876m-0.00244,-0.18118c-0.00134,-0.05127 -0.00256,-0.10748 -0.00256,-0.15878c0,0.05249 0.00122,0.10751 0.00256,0.15878m-0.00378,-0.20123c-0.00122,-0.0513 -0.00122,-0.10129 -0.00244,-0.15256c0.00122,0.05127 0.00122,0.10126 0.00244,0.15256m-0.00244,-0.17111c-0.00134,-0.05884 -0.00256,-0.1087 -0.00378,-0.16745c0.00122,0.05731 0.00244,0.10999 0.00378,0.16745m-0.00378,-0.21249c-0.00122,-0.04248 -0.00244,-0.08374 -0.00244,-0.12747c0,0.04373 0.00122,0.08377 0.00244,0.12747m-0.00378,-0.17752c-0.00122,-0.05493 -0.00244,-0.10498 -0.00244,-0.16c0,0.05252 0.00122,0.1088 0.00244,0.16m-0.00378,-0.2037c-0.00122,-0.03998 -0.00244,-0.08627 -0.00244,-0.12503c0,0.04126 0.00122,0.08374 0.00244,0.12503m-0.00366,-0.17874c-0.00122,-0.0513 -0.00256,-0.10254 -0.00378,-0.15375c0.00122,0.05121 0.00256,0.10126 0.00378,0.15375m-0.005,-0.22125c-0.00134,-0.03131 -0.00134,-0.05997 -0.00256,-0.09125c0.00122,0.02997 0.00122,0.06125 0.00256,0.09125m-0.00378,-0.17624c-0.00122,-0.02756 -0.00122,-0.05624 -0.00244,-0.08377c0.00122,0.02753 0.00122,0.05621 0.00244,0.08377m-0.00623,-0.23126c0,-0.01999 -0.00134,-0.04007 -0.00134,-0.05875c0,0.01868 0.00134,0.03998 0.00134,0.05875m-0.00378,-0.16626c0,-0.01126 -0.00122,-0.02875 -0.00122,-0.04004c0,0.01382 0.00122,0.02625 0.00122,0.04004m-0.01123,-0.39624c0,-0.00748 0,-0.01505 0,-0.02374c0,0.0087 0,0.01627 0,0.02374" id="path262"/>
  <path fill="#d8d7d8" fill-rule="nonzero" d="m898.78754,150.58746l0,0c118.00378,-0.19997 132.54376,-54.94003 140.86249,-54.94003c0.1001,0 0.19873,0.00755 0.29749,0.0238c-0.09875,-0.01503 -0.19739,-0.0238 -0.29749,-0.0238c-8.31628,0 -22.84247,54.75755 -140.86249,54.95004m143.69635,-52.47871c-0.00134,-0.00252 -0.00391,-0.00626 -0.00513,-0.00877c0.00122,0.00374 0.00256,0.00626 0.00513,0.00877m-0.01257,-0.02007c-0.00256,-0.00496 -0.005,-0.00999 -0.00879,-0.01495c0.00378,0.00496 0.00623,0.00999 0.00879,0.01495m-0.01245,-0.02242c-0.44006,-0.755 -0.84253,-1.315 -1.19641,-1.66383c0.35388,0.35004 0.75513,0.90881 1.19641,1.66383m-1.23755,-1.7038c-0.00256,-0.00252 -0.005,-0.00496 -0.00879,-0.00748c0.00378,0.00252 0.00623,0.00496 0.00879,0.00748" id="path270"/>
  <path fill="#68431a" fill-rule="nonzero" d="m329.73743,48.33627c-8.46375,-8.33627 -16.6062,54.18505 -143.10614,54.18505c-126.50257,0 -134.64379,-62.52128 -143.10755,-54.18505c-8.46252,8.33626 -43.52374,136.15502 -10.88129,205.22123c32.64381,69.06503 153.98884,53.19626 153.98884,53.19626c0,0 121.34375,15.86877 153.98749,-53.19626c32.64246,-69.06621 -2.41882,-196.88499 -10.88135,-205.22123" id="path242"/>
  <path fill="#934924" fill-rule="nonzero" d="m180.24249,201.50124c0,38.11624 -30.89874,69.01625 -69.0163,69.01625c-38.1162,0 -69.01625,-30.89998 -69.01625,-69.01625c0,-38.11752 30.90002,-69.01749 69.01625,-69.01749c38.11755,0 69.0163,30.89996 69.0163,69.01749" id="path244"/>
  <path fill="#fbc308" fill-rule="nonzero" d="m159.0675,201.50124c0,26.4213 -21.41876,47.83998 -47.84131,47.83998c-26.4212,0 -47.84127,-21.41869 -47.84127,-47.83998c0,-26.4225 21.42003,-47.84125 47.84127,-47.84125c26.42255,0 47.84131,21.41875 47.84131,47.84125" id="path246"/>
  <path fill="#ffff00" fill-rule="nonzero" d="m159.0675,201.50124c0,26.4213 -21.41876,47.83998 -47.84131,47.83998c-26.4212,0 -47.84127,-21.41869 -47.84127,-47.83998c0,-26.4225 21.42003,-47.84125 47.84127,-47.84125c26.42255,0 47.84131,21.41875 47.84131,47.84125" id="path248"/>
  <path fill="#d8d7d8" fill-rule="nonzero" d="m187.26251,102.51122l0,0c118.00378,-0.19997 132.54376,-54.94003 140.86249,-54.94003c0.1001,0 0.19873,0.00756 0.29749,0.02381c-0.09875,-0.01503 -0.19739,-0.02381 -0.29749,-0.02381c-8.31628,0 -22.84247,54.75755 -140.86249,54.95003m143.69635,-52.4787c-0.00134,-0.00252 -0.00391,-0.00626 -0.00513,-0.00877c0.00122,0.00374 0.00256,0.00626 0.00513,0.00877m-0.01257,-0.02007c-0.00256,-0.00496 -0.005,-0.00999 -0.00879,-0.01495c0.00378,0.00496 0.00623,0.00999 0.00879,0.01495m-0.01245,-0.02242c-0.44006,-0.755 -0.84253,-1.315 -1.19641,-1.66383c0.35388,0.35004 0.75513,0.90881 1.19641,1.66383m-1.23755,-1.7038c-0.00256,-0.00252 -0.005,-0.00496 -0.00879,-0.00748c0.00378,0.00252 0.00623,0.00496 0.00879,0.00748" id="path270"/>
  <path fill="#934924" fill-rule="nonzero" d="m259.45496,270.51749c-38.11749,0 -69.01625,-30.89995 -69.01625,-69.01627c0,-38.11746 30.89874,-69.01749 69.01625,-69.01749c38.11621,0 69.01624,30.90004 69.01624,69.01749c0,38.11629 -30.89999,69.01627 -69.01624,69.01627m0,-116.8575c-26.4225,0 -47.84125,21.41875 -47.84125,47.84125c0,26.42131 21.41875,47.84001 47.84125,47.84001c26.42126,0 47.84125,-21.4187 47.84125,-47.84001c0,-26.4225 -21.41998,-47.84125 -47.84125,-47.84125" id="path274"/>
  <path stroke="#000000" d="m77.47498,209.84355c0,0 34.00487,-62.66978 70.18737,0" id="path3187" stroke-miterlimit="4" stroke-width="10" fill="none"/>
  <path fill="#ffff00" fill-rule="nonzero" d="m305.42737,202.47993c0,26.42131 -21.41882,47.83995 -47.84131,47.83995c-26.42125,0 -47.84131,-21.41864 -47.84131,-47.83995c0,-26.42252 21.42004,-47.84125 47.84131,-47.84125c26.42249,0 47.84131,21.41873 47.84131,47.84125" id="svg_14"/>
  <path stroke="#000000" d="m225.97498,209.85039c0,0 34.00488,-62.66982 70.18738,0" stroke-miterlimit="4" stroke-width="10" fill="none" id="svg_1"/>
  <path fill="#5b3a16" fill-rule="nonzero" d="m216.15997,308.32773c-8.67499,0 -10.664,1.75 -21.19202,-0.776c-10.52899,-2.52698 -8.099,-67.72398 -6.88196,-49.58298c1.21796,18.14099 -0.55304,0.00098 -0.82301,0.004l0,-155.46199c118.02199,-0.18201 132.54195,-54.93952 140.86201,-54.93952c0.09998,0 0.19995,0.0087 0.29993,0.02371c0.43005,0.0713 0.8501,0.29748 1.26001,0.69379c0.01001,0.0025 0.01001,0.005 0.01001,0.00751c0.01001,0.01379 0.03003,0.02748 0.04004,0.03999l0,0c0.35999,0.3487 0.76001,0.90871 1.19995,1.66369c0,0.00249 0,0.00501 0,0.00751c0.01001,0.0051 0.01001,0.00999 0.01001,0.01499c0,0.0038 0.01001,0.00881 0.01001,0.0113c0,0.0025 0,0.00621 0,0.0087c10.01001,17.25531 40.26001,134.9643 10.54004,201.4713c0.02002,0.01297 0.03003,0.02399 0.04993,0.03601c-0.29993,0.67297 -0.60999,1.34497 -0.92993,2.00797c-9.13998,19.34 -25.22998,32.01801 -43.67004,40.25198c-26.68094,11.91302 -58.26398,14.51801 -80.7849,14.51801m43.29497,-175.84398c-38.11699,0 -69.01602,30.89999 -69.01602,69.017c0,38.117 30.89903,69.01698 69.01602,69.01698c38.12,0 69.02002,-30.89998 69.02002,-69.01698c0,-38.117 -30.90002,-69.017 -69.02002,-69.017" id="path272"/>
  <g id="svg_8">
   <path id="svg_6" d="m158.39035,256.40836l53.91019,-0.19528l-27.76465,-29.42578l-26.14554,29.62106z" stroke-width="0" stroke="#000000" fill="#000000"/>
   <path id="svg_7" d="m158.70273,256.09042l53.19827,-0.19528l-26.57813,56.71582l-26.62015,-56.52054z" stroke-linecap="null" stroke-linejoin="null" stroke-dasharray="null" stroke-width="0" fill="#000000"/>
  </g>
 </g>
</svg>